<?xml version="1.0" encoding="utf-8"?>
<!-- Generator: Adobe Illustrator 16.0.0, SVG Export Plug-In . SVG Version: 6.00 Build 0)  -->
<!DOCTYPE svg PUBLIC "-//W3C//DTD SVG 1.1//EN" "http://www.w3.org/Graphics/SVG/1.1/DTD/svg11.dtd">
<svg version="1.1" id="Layer_1" xmlns="http://www.w3.org/2000/svg" xmlns:xlink="http://www.w3.org/1999/xlink" x="0px" y="0px"
	 width="28px" height="27px" viewBox="0 0 28 27" enable-background="new 0 0 28 27" xml:space="preserve">
<path fill="#989898" d="M-39.34,12.042c-0.706,0-1.28,0.573-1.28,1.28c0,0.708,0.574,1.28,1.28,1.28c0.707,0,1.28-0.571,1.28-1.28
	C-38.06,12.615-38.633,12.042-39.34,12.042z M-35.5,15.882c-0.706,0-1.279,0.572-1.279,1.279s0.574,1.28,1.279,1.28
	c0.707,0,1.28-0.573,1.28-1.28S-34.794,15.882-35.5,15.882z M-39.34,15.882c-0.706,0-1.28,0.572-1.28,1.279s0.574,1.28,1.28,1.28
	c0.707,0,1.28-0.573,1.28-1.28S-38.633,15.882-39.34,15.882z M-27.821,5.644h-2.56c0-0.708-0.573-1.281-1.28-1.281
	c-0.707,0-1.28,0.574-1.28,1.281h-5.12c0-0.708-0.573-1.281-1.28-1.281c-0.706,0-1.28,0.574-1.28,1.281h-2.56
	c-1.413,0-2.56,1.146-2.56,2.559v12.798c0,1.415,1.146,2.56,2.56,2.56h15.359c1.412,0,2.56-1.145,2.56-2.56V8.203
	C-25.261,6.79-26.409,5.644-27.821,5.644z M-27.821,21.001H-43.18V8.203h2.56c0,0.708,0.574,1.279,1.28,1.279
	c0.707,0,1.28-0.571,1.28-1.279h5.12c0,0.708,0.573,1.279,1.28,1.279c0.708,0,1.28-0.571,1.28-1.279h2.56V21.001z M-31.661,12.042
	c-0.707,0-1.28,0.573-1.28,1.28c0,0.708,0.573,1.28,1.28,1.28c0.708,0,1.28-0.571,1.28-1.28
	C-30.38,12.615-30.953,12.042-31.661,12.042z M-35.5,12.042c-0.706,0-1.279,0.573-1.279,1.28c0,0.708,0.574,1.28,1.279,1.28
	c0.707,0,1.28-0.571,1.28-1.28C-34.22,12.615-34.794,12.042-35.5,12.042z M-31.661,15.882c-0.707,0-1.28,0.572-1.28,1.279
	s0.573,1.28,1.28,1.28c0.708,0,1.28-0.573,1.28-1.28S-30.953,15.882-31.661,15.882z"/>
<path fill="#C0C0C0" d="M9.891,10.649V7.797c0-3.145,2.559-5.704,5.704-5.704c3.144,0,5.703,2.559,5.703,5.704v2.852
	c0,3.144-2.559,5.702-5.703,5.702C12.45,16.351,9.891,13.792,9.891,10.649z M26.212,20.779c-0.246-0.122-6.057-3.001-10.618-3.001
	c-4.562,0-10.373,2.88-10.618,3.001c-0.483,0.243-0.789,0.735-0.789,1.276v1.425c0,0.789,0.638,1.426,1.426,1.426h19.96
	c0.788,0,1.426-0.638,1.426-1.426v-1.425C27,21.514,26.695,21.021,26.212,20.779z"/>
</svg>
