<?xml version="1.0" encoding="utf-8"?>
<!-- Generator: Adobe Illustrator 16.0.0, SVG Export Plug-In . SVG Version: 6.00 Build 0)  -->
<!DOCTYPE svg PUBLIC "-//W3C//DTD SVG 1.1//EN" "http://www.w3.org/Graphics/SVG/1.1/DTD/svg11.dtd">
<svg version="1.1" id="Layer_1" xmlns="http://www.w3.org/2000/svg" xmlns:xlink="http://www.w3.org/1999/xlink" x="0px" y="0px"
	 width="460px" height="180px" viewBox="67.64 330.945 460 180" enable-background="new 67.64 330.945 460 180"
	 xml:space="preserve">
<g>
	<polyline fill="none" stroke="#FFFFFF" stroke-miterlimit="10" points="110.654,373.395 110.654,392.758 139.779,403.264 
		148.794,376.135 174.926,389.459 203.787,403.264 203.787,376.431 227.506,403.264 255.991,389.459 270.779,363.77 
		284.491,403.062 302.063,375.953 316.161,390.107 343.189,399.867 343.375,379.974 373.185,390.107 400.986,376.381 
		416.058,390.107 444.281,422.215 444.058,376.381 457.352,390.015 484.375,399.778 484.563,379.877 	"/>
	<path fill="#FFFFFF" d="M94.97,422.215h15.547c8.524,0,12.482,0.819,16.161,4.908c2.251,2.316,3.004,5.387,3.004,8.322
		c0,3.887-1.773,7.841-5.866,10.157c8.114,2.87,8.318,9.62,8.318,11.731c0,4.021-1.57,8.46-4.638,10.98
		c-4.636,3.885-7.977,4.364-16.499,4.364H94.97V422.215z M107.311,441.376h4.569c1.776,0,5.459,0,5.459-4.021
		c0-3.821-3.481-3.821-5.459-3.821h-4.569V441.376z M107.311,461.356h6.068c1.64,0,6.414,0,6.414-4.84
		c0-4.366-4.367-4.366-6.414-4.366h-6.068V461.356z M134.023,434.83h10.638v4.021h0.138c0.955-1.839,2.932-5.319,9.478-5.319v11.393
		c-5.252,0.135-8.93,1.224-8.93,6.955v20.798h-11.324V434.83z M195.692,472.674h-11.322v-4.089h-0.137
		c-1.91,3.682-6.614,5.384-11.044,5.384c-12.004,0-19.029-9.408-19.029-20.251c0-12.411,8.934-20.188,19.029-20.188
		c6.206,0,9.683,3.003,11.044,5.319h0.137v-4.021h11.322V472.674z M174.893,463.403c7.092,0,9.478-6.001,9.478-9.685
		c0-4.563-3.136-9.613-9.545-9.613c-6.48,0-9.344,5.457-9.344,9.753C165.481,457.402,168.072,463.403,174.893,463.403z
		 M198.306,434.83h10.565v4.021h0.138c1.162-1.839,3.546-5.319,10.297-5.319c3.613,0,7.64,1.501,9.684,3.277
		c2.044,1.771,4.365,4.773,4.365,12.204v23.662h-11.322v-20.656c0-2.666,0-7.851-5.93-7.851c-6.478,0-6.478,5.594-6.478,7.918
		v20.589h-11.318V434.83H198.306z M276.583,472.674h-10.775v-4.089h-0.139c-0.955,1.564-3.682,5.319-11.321,5.319
		c-11.457,0-18.958-8.864-18.958-20.254c0-12.821,9.139-20.12,18.753-20.12c6.681,0,9.886,3.277,11.114,4.501v-15.82h11.323v50.463
		H276.583z M256.193,463.333c7.091,0,9.684-5.797,9.684-9.751c0-4.57-3.272-9.482-9.545-9.482c-6.549,0-9.616,5.114-9.616,9.482
		C246.713,459.449,250.877,463.333,256.193,463.333z M297.053,445.465c-0.07-0.821-0.205-2.868-3.546-2.868
		c-2.39,0-3.208,1.503-3.208,2.528c0,2.042,2.799,3.203,5.8,4.089c6.407,1.78,13.226,3.689,13.226,11.867
		c0,7.98-7.023,12.888-15.412,12.888c-5.727,0-14.386-2.591-15.412-12.546h11.254c0.476,3.478,3.817,3.478,4.292,3.478
		c1.908,0,3.955-1.089,3.955-2.933c0-2.929-2.795-3.271-10.023-6.068c-4.909-1.565-9-4.771-9-9.888
		c0-7.504,6.823-12.481,14.659-12.481c4.979,0,13.567,1.978,14.526,11.935H297.053z M373.185,433.601
		c13.779,0,20.391,10.841,20.391,20.117c0,9.275-6.611,20.116-20.391,20.116c-13.773,0-20.387-10.841-20.387-20.116
		C352.798,444.442,359.412,433.601,373.185,433.601z M373.185,463.268c4.912,0,9.074-4.028,9.074-9.55
		c0-5.529-4.162-9.551-9.074-9.551c-4.907,0-9.069,4.021-9.069,9.551C364.116,459.24,368.278,463.268,373.185,463.268z
		 M395.501,434.83h10.637v4.158h0.068h0.137c2.249-2.865,6.002-5.457,11.797-5.457c13.431,0,18.481,11.798,18.481,20.602
		c0,10.908-7.644,19.837-18.415,19.837c-6.818,0-10.021-3.265-11.388-4.7v16.023h-11.32V434.83H395.501z M425.3,453.788
		c0-4.503-3.271-9.683-9.476-9.683c-6.209,0-9.481,5.18-9.481,9.683c0,4.78,3.546,9.615,9.481,9.615
		C421.752,463.403,425.3,458.563,425.3,453.788z M449.898,472.674h-11.32V434.83h11.32V472.674z M350.779,458.289
		c-2.045,8.592-9.615,15.616-19.846,15.616c-11.457,0-20.252-9.004-20.252-20.254c0-11.116,8.658-20.12,19.979-20.12
		c10.025,0,18.144,6.62,20.052,15.891h-11.456c-1.229-2.591-3.474-5.321-8.182-5.321c-5.389-0.27-9,4.161-9,9.618
		c0,5.521,3.614,9.612,9,9.612c4.708,0,6.953-2.726,8.182-5.047h11.523V458.289z M491.969,458.289
		c-2.049,8.592-9.618,15.616-19.849,15.616c-11.454,0-20.251-9.004-20.251-20.254c0-11.116,8.66-20.12,19.979-20.12
		c10.023,0,18.141,6.62,20.051,15.891h-11.457c-1.226-2.591-3.477-5.321-8.182-5.321c-5.385-0.27-9,4.161-9,9.618
		c0,5.521,3.617,9.612,9,9.612c4.705,0,6.956-2.726,8.182-5.047h11.527V458.289z"/>
	<path fill="#FFFFFF" d="M116.136,373.4c0,3.027-2.456,5.479-5.482,5.479c-3.028,0-5.483-2.454-5.483-5.479
		c0-3.031,2.455-5.483,5.483-5.483C113.68,367.917,116.136,370.369,116.136,373.4z M110.654,387.275
		c-3.028,0-5.483,2.456-5.483,5.483c0,3.026,2.455,5.479,5.483,5.479c3.026,0,5.482-2.457,5.482-5.479
		C116.136,389.731,113.68,387.275,110.654,387.275z M139.779,397.789c-3.028,0-5.479,2.454-5.479,5.48c0,3.024,2.45,5.48,5.479,5.48
		c3.03,0,5.484-2.456,5.484-5.48C145.263,400.243,142.807,397.789,139.779,397.789z M148.794,370.655
		c-3.028,0-5.479,2.451-5.479,5.48c0,3.024,2.451,5.485,5.479,5.485c3.03,0,5.483-2.461,5.483-5.485
		C154.277,373.106,151.825,370.655,148.794,370.655z M174.926,383.976c-3.027,0-5.485,2.456-5.485,5.483
		c0,3.026,2.458,5.482,5.485,5.482c3.028,0,5.482-2.456,5.482-5.482C180.406,386.432,177.952,383.976,174.926,383.976z
		 M203.785,397.787c-3.028,0-5.479,2.458-5.479,5.482s2.45,5.48,5.479,5.48c3.028,0,5.484-2.451,5.484-5.48
		C209.269,400.243,206.81,397.787,203.785,397.787z M203.785,370.954c-3.028,0-5.479,2.456-5.479,5.48
		c0,3.029,2.45,5.485,5.479,5.485c3.028,0,5.484-2.456,5.484-5.485C209.269,373.41,206.81,370.954,203.785,370.954z
		 M227.506,397.787c-3.026,0-5.487,2.458-5.487,5.482s2.461,5.48,5.487,5.48c3.028,0,5.479-2.451,5.479-5.48
		C232.986,400.243,230.534,397.787,227.506,397.787z M255.988,383.976c-3.03,0-5.483,2.456-5.483,5.483
		c0,3.026,2.453,5.482,5.483,5.482c3.031,0,5.484-2.456,5.484-5.482C261.47,386.432,259.017,383.976,255.988,383.976z
		 M270.776,358.287c-3.028,0-5.479,2.456-5.479,5.483c0,3.027,2.45,5.48,5.479,5.48c3.028,0,5.484-2.453,5.484-5.48
		C276.261,360.743,273.802,358.287,270.776,358.287z M302.063,370.469c-3.03,0-5.481,2.456-5.481,5.483
		c0,3.024,2.448,5.48,5.481,5.48c3.022,0,5.479-2.456,5.479-5.48C307.542,372.925,305.085,370.469,302.063,370.469z
		 M284.491,397.583c-3.03,0-5.487,2.454-5.487,5.483s2.454,5.48,5.487,5.48c3.026,0,5.479-2.453,5.479-5.48
		C289.971,400.038,287.517,397.583,284.491,397.583z M373.185,384.626c-3.027,0-5.481,2.451-5.481,5.48s2.454,5.48,5.481,5.48
		c3.029,0,5.49-2.451,5.49-5.48S376.214,384.626,373.185,384.626z M416.058,384.626c-3.027,0-5.479,2.451-5.479,5.48
		s2.451,5.48,5.479,5.48c3.028,0,5.487-2.451,5.487-5.48S419.083,384.626,416.058,384.626z M400.986,370.905
		c-3.029,0-5.484,2.452-5.484,5.481c0,3.026,2.455,5.48,5.484,5.48c3.027,0,5.479-2.456,5.479-5.48
		C406.462,373.357,404.011,370.905,400.986,370.905z M444.281,416.735c-3.028,0-5.481,2.456-5.481,5.48
		c0,3.027,2.453,5.481,5.481,5.481s5.483-2.454,5.483-5.481C449.764,419.186,447.309,416.735,444.281,416.735z M444.058,370.905
		c-3.028,0-5.483,2.452-5.483,5.477c0,3.031,2.455,5.485,5.483,5.485c3.025,0,5.479-2.456,5.479-5.485
		C449.538,373.357,447.083,370.905,444.058,370.905z M343.375,374.491c-3.027,0-5.481,2.454-5.481,5.483
		c0,3.026,2.454,5.48,5.481,5.48c3.028,0,5.481-2.454,5.481-5.48C348.857,376.945,346.404,374.491,343.375,374.491z
		 M316.161,384.626c-3.028,0-5.479,2.456-5.479,5.48s2.451,5.48,5.479,5.48c3.03,0,5.485-2.456,5.485-5.48
		S319.191,384.626,316.161,384.626z M343.189,394.388c-3.028,0-5.482,2.451-5.482,5.48s2.454,5.481,5.482,5.481
		c3.027,0,5.484-2.452,5.484-5.481S346.216,394.388,343.189,394.388z M484.563,374.397c-3.031,0-5.482,2.454-5.482,5.485
		c0,3.024,2.451,5.479,5.482,5.479c3.027,0,5.481-2.454,5.481-5.479C490.043,376.851,487.59,374.397,484.563,374.397z
		 M457.352,384.53c-3.028,0-5.482,2.456-5.482,5.485c0,3.024,2.454,5.481,5.482,5.481c3.027,0,5.481-2.457,5.481-5.481
		C462.833,386.989,460.377,384.53,457.352,384.53z M484.375,394.294c-3.028,0-5.484,2.454-5.484,5.483
		c0,3.026,2.456,5.476,5.484,5.476s5.484-2.451,5.484-5.476C489.859,396.749,487.401,394.294,484.375,394.294z"/>
</g>
</svg>
