<?xml version="1.0" encoding="utf-8"?>
<!-- Generator: Adobe Illustrator 16.0.0, SVG Export Plug-In . SVG Version: 6.00 Build 0)  -->
<!DOCTYPE svg PUBLIC "-//W3C//DTD SVG 1.1//EN" "http://www.w3.org/Graphics/SVG/1.1/DTD/svg11.dtd">
<svg version="1.1" id="Layer_1" xmlns="http://www.w3.org/2000/svg" xmlns:xlink="http://www.w3.org/1999/xlink" x="0px" y="0px"
	 width="24px" height="24px" viewBox="0 0 24 24" enable-background="new 0 0 24 24" xml:space="preserve">
<g>
	<path fill="#C0C0C0" d="M16.433,6.925c-1.901-1.901-4.982-1.901-6.883,0c-1.9,1.9-1.9,4.982,0,6.882
		c1.713,1.712,4.379,1.883,6.281,0.512c0.213-0.152,0.414-0.324,0.603-0.512c0.188-0.188,0.354-0.387,0.508-0.597
		C18.314,11.311,18.144,8.638,16.433,6.925z M10.617,12.74c-1.31-1.311-1.31-3.437,0-4.745c1.311-1.31,3.438-1.31,4.748,0
		c1.307,1.309,1.307,3.434,0,4.745C14.055,14.051,11.928,14.051,10.617,12.74z"/>
	<path fill="#C0C0C0" d="M20.948,17.034l-3.656-3.656c-0.098-0.097-0.222-0.154-0.353-0.167c-0.18-0.027-0.371,0.027-0.508,0.167
		L16,13.808c-0.141,0.14-0.197,0.328-0.17,0.511c0.012,0.128,0.072,0.252,0.17,0.35l3.655,3.656c0.24,0.236,0.624,0.236,0.86,0
		l0.433-0.43C21.186,17.658,21.186,17.271,20.948,17.034z"/>
</g>
</svg>
