<?xml version="1.0" encoding="utf-8"?>
<!-- Generator: Adobe Illustrator 16.0.0, SVG Export Plug-In . SVG Version: 6.00 Build 0)  -->
<!DOCTYPE svg PUBLIC "-//W3C//DTD SVG 1.1//EN" "http://www.w3.org/Graphics/SVG/1.1/DTD/svg11.dtd">
<svg version="1.1" id="Layer_1" xmlns="http://www.w3.org/2000/svg" xmlns:xlink="http://www.w3.org/1999/xlink" x="0px" y="0px"
	 width="278.5px" height="108.5px" viewBox="0 71.5 278.5 108.5" enable-background="new 0 71.5 278.5 108.5" xml:space="preserve">
<g>
	<polyline fill="none" stroke="#FFFFFF" stroke-miterlimit="10" points="22.924,95.4 22.924,107.721 41.456,114.406 47.192,97.144 
		63.82,105.622 82.185,114.406 82.185,97.332 97.277,114.406 115.403,105.622 124.812,89.276 133.537,114.278 144.718,97.028 
		153.689,106.034 170.888,112.244 171.005,99.586 189.975,106.034 207.665,97.3 217.254,106.034 235.213,126.465 235.07,97.3 
		243.529,105.976 260.725,112.188 260.844,99.524 	"/>
	<path fill="#FFFFFF" d="M12.944,126.465h9.893c5.423,0,7.942,0.521,10.283,3.123c1.433,1.474,1.911,3.428,1.911,5.295
		c0,2.474-1.127,4.989-3.732,6.463c5.163,1.826,5.292,6.121,5.292,7.465c0,2.558-0.999,5.383-2.951,6.986
		c-2.95,2.473-5.076,2.776-10.499,2.776H12.944V126.465z M20.797,138.657h2.907c1.13,0,3.473,0,3.473-2.559
		c0-2.432-2.214-2.432-3.473-2.432h-2.907V138.657z M20.797,151.37h3.861c1.043,0,4.082,0,4.082-3.08
		c0-2.777-2.779-2.777-4.082-2.777h-3.861V151.37z M37.793,134.491h6.769v2.559h0.088c0.607-1.17,1.866-3.384,6.031-3.384v7.249
		c-3.342,0.086-5.682,0.779-5.682,4.426v13.233h-7.206V134.491L37.793,134.491z M77.034,158.572H69.83v-2.602h-0.087
		c-1.215,2.343-4.208,3.426-7.027,3.426c-7.638,0-12.108-5.987-12.108-12.886c0-7.897,5.685-12.846,12.108-12.846
		c3.95,0,6.162,1.91,7.027,3.384h0.087v-2.559h7.204V158.572z M63.799,152.673c4.513,0,6.031-3.818,6.031-6.162
		c0-2.904-1.996-6.117-6.074-6.117c-4.123,0-5.946,3.473-5.946,6.205C57.811,148.854,59.459,152.673,63.799,152.673z
		 M78.697,134.491h6.723v2.559h0.087c0.739-1.17,2.257-3.384,6.552-3.384c2.299,0,4.861,0.955,6.162,2.084
		c1.301,1.128,2.777,3.038,2.777,7.767v15.056h-7.204v-13.144c0-1.696,0-4.995-3.773-4.995c-4.122,0-4.122,3.559-4.122,5.038v13.101
		h-7.202L78.697,134.491L78.697,134.491z M128.505,158.572h-6.855v-2.602h-0.089c-0.607,0.995-2.343,3.385-7.204,3.385
		c-7.291,0-12.062-5.642-12.062-12.888c0-8.159,5.815-12.803,11.932-12.803c4.251,0,6.291,2.085,7.072,2.863v-10.066h7.205v32.11
		H128.505L128.505,158.572z M115.531,152.629c4.513,0,6.162-3.688,6.162-6.204c0-2.909-2.082-6.034-6.073-6.034
		c-4.167,0-6.119,3.253-6.119,6.034C109.499,150.157,112.148,152.629,115.531,152.629z M141.531,141.259
		c-0.045-0.522-0.131-1.825-2.257-1.825c-1.521,0-2.041,0.957-2.041,1.609c0,1.298,1.781,2.038,3.691,2.601
		c4.076,1.134,8.416,2.349,8.416,7.551c0,5.079-4.47,8.202-9.808,8.202c-3.644,0-9.153-1.648-9.807-7.983h7.161
		c0.303,2.213,2.43,2.213,2.731,2.213c1.214,0,2.517-0.692,2.517-1.866c0-1.863-1.779-2.081-6.378-3.861
		c-3.123-0.996-5.727-3.036-5.727-6.292c0-4.774,4.341-7.941,9.328-7.941c3.168,0,8.632,1.259,9.243,7.595L141.531,141.259
		L141.531,141.259z M189.975,133.709c8.767,0,12.974,6.899,12.974,12.802c0,5.9-4.207,12.8-12.974,12.8
		c-8.765,0-12.973-6.899-12.973-12.8C177.001,140.608,181.209,133.709,189.975,133.709z M189.975,152.586
		c3.125,0,5.773-2.562,5.773-6.075c0-3.519-2.648-6.078-5.773-6.078c-3.124,0-5.771,2.559-5.771,6.078
		C184.203,150.023,186.851,152.586,189.975,152.586z M204.174,134.491h6.768v2.646h0.044h0.086c1.431-1.823,3.819-3.473,7.506-3.473
		c8.548,0,11.76,7.508,11.76,13.108c0,6.941-4.864,12.623-11.717,12.623c-4.339,0-6.377-2.077-7.246-2.99v10.195h-7.204v-32.11
		H204.174z M223.134,146.555c0-2.865-2.081-6.161-6.029-6.161c-3.951,0-6.033,3.296-6.033,6.161c0,3.042,2.256,6.118,6.033,6.118
		C220.877,152.673,223.134,149.592,223.134,146.555z M238.787,158.572h-7.203v-24.081h7.203V158.572z M175.717,149.418
		c-1.301,5.468-6.118,9.938-12.628,9.938c-7.29,0-12.887-5.729-12.887-12.887c0-7.074,5.509-12.804,12.712-12.804
		c6.379,0,11.545,4.213,12.759,10.111h-7.29c-0.781-1.647-2.21-3.386-5.205-3.386c-3.429-0.172-5.727,2.647-5.727,6.12
		c0,3.513,2.298,6.117,5.727,6.117c2.995,0,4.424-1.735,5.205-3.212h7.333V149.418z M265.557,149.418
		c-1.305,5.468-6.119,9.938-12.629,9.938c-7.289,0-12.887-5.729-12.887-12.887c0-7.074,5.51-12.804,12.713-12.804
		c6.377,0,11.543,4.213,12.758,10.111h-7.291c-0.779-1.647-2.211-3.386-5.205-3.386c-3.426-0.172-5.727,2.647-5.727,6.12
		c0,3.513,2.301,6.117,5.727,6.117c2.994,0,4.426-1.735,5.205-3.212h7.336V149.418z"/>
	<path fill="#FFFFFF" d="M26.412,95.404c0,1.926-1.563,3.485-3.488,3.485c-1.927,0-3.489-1.562-3.489-3.485
		c0-1.93,1.562-3.49,3.489-3.49C24.849,91.914,26.412,93.475,26.412,95.404z M22.924,104.232c-1.927,0-3.489,1.563-3.489,3.488
		c0,1.926,1.562,3.487,3.489,3.487c1.925,0,3.488-1.564,3.488-3.487C26.412,105.796,24.849,104.232,22.924,104.232z M41.456,110.922
		c-1.927,0-3.486,1.562-3.486,3.487c0,1.924,1.559,3.487,3.486,3.487c1.928,0,3.49-1.563,3.49-3.487
		C44.946,112.484,43.383,110.922,41.456,110.922z M47.192,93.657c-1.927,0-3.486,1.56-3.486,3.486c0,1.925,1.559,3.49,3.486,3.49
		c1.929,0,3.489-1.565,3.489-3.49C50.681,95.217,49.121,93.657,47.192,93.657z M63.82,102.133c-1.926,0-3.49,1.562-3.49,3.489
		c0,1.926,1.564,3.488,3.49,3.488c1.927,0,3.488-1.562,3.488-3.488C67.308,103.695,65.746,102.133,63.82,102.133z M82.184,110.921
		c-1.927,0-3.487,1.564-3.487,3.488s1.559,3.487,3.487,3.487c1.926,0,3.489-1.56,3.489-3.487
		C85.673,112.484,84.108,110.921,82.184,110.921z M82.184,93.848c-1.927,0-3.487,1.562-3.487,3.486c0,1.928,1.559,3.49,3.487,3.49
		c1.926,0,3.489-1.562,3.489-3.49C85.673,95.41,84.108,93.848,82.184,93.848z M97.277,110.921c-1.925,0-3.491,1.564-3.491,3.488
		s1.566,3.487,3.491,3.487c1.927,0,3.486-1.56,3.486-3.487C100.765,112.484,99.204,110.921,97.277,110.921z M115.401,102.133
		c-1.929,0-3.489,1.562-3.489,3.489c0,1.926,1.561,3.488,3.489,3.488s3.49-1.562,3.49-3.488
		C118.89,103.695,117.329,102.133,115.401,102.133z M124.81,85.787c-1.926,0-3.486,1.563-3.486,3.489
		c0,1.926,1.559,3.487,3.486,3.487c1.928,0,3.49-1.561,3.49-3.487C128.3,87.35,126.735,85.787,124.81,85.787z M144.718,93.538
		c-1.928,0-3.487,1.563-3.487,3.489c0,1.924,1.557,3.487,3.487,3.487c1.922,0,3.486-1.563,3.486-3.487
		C148.205,95.102,146.641,93.538,144.718,93.538z M133.537,110.791c-1.928,0-3.491,1.562-3.491,3.489
		c0,1.928,1.562,3.486,3.491,3.486c1.926,0,3.487-1.56,3.487-3.486S135.463,110.791,133.537,110.791z M189.975,102.547
		c-1.927,0-3.488,1.56-3.488,3.487c0,1.927,1.562,3.486,3.488,3.486s3.492-1.56,3.492-3.486
		C193.467,104.106,191.901,102.547,189.975,102.547z M217.254,102.547c-1.926,0-3.486,1.56-3.486,3.487
		c0,1.927,1.56,3.486,3.486,3.486c1.926,0,3.491-1.56,3.491-3.486C220.745,104.106,219.179,102.547,217.254,102.547z
		 M207.665,93.816c-1.929,0-3.491,1.561-3.491,3.487c0,1.926,1.562,3.486,3.491,3.486c1.925,0,3.486-1.562,3.486-3.486
		C211.147,95.377,209.588,93.816,207.665,93.816z M235.213,122.978c-1.926,0-3.488,1.563-3.488,3.487
		c0,1.927,1.562,3.487,3.488,3.487s3.488-1.561,3.488-3.487C238.701,124.537,237.139,122.978,235.213,122.978z M235.07,93.816
		c-1.926,0-3.488,1.561-3.488,3.484c0,1.93,1.562,3.49,3.488,3.49s3.486-1.562,3.486-3.49
		C238.557,95.377,236.996,93.816,235.07,93.816z M171.005,96.098c-1.927,0-3.487,1.562-3.487,3.488c0,1.926,1.561,3.488,3.487,3.488
		c1.926,0,3.488-1.562,3.488-3.488C174.494,97.659,172.933,96.098,171.005,96.098z M153.689,102.547
		c-1.927,0-3.487,1.562-3.487,3.487c0,1.924,1.56,3.486,3.487,3.486c1.928,0,3.491-1.562,3.491-3.486
		C157.18,104.109,155.617,102.547,153.689,102.547z M170.888,108.758c-1.928,0-3.489,1.56-3.489,3.487s1.562,3.488,3.489,3.488
		c1.925,0,3.489-1.561,3.489-3.488S172.812,108.758,170.888,108.758z M260.844,96.038c-1.928,0-3.488,1.561-3.488,3.489
		c0,1.925,1.561,3.487,3.488,3.487c1.926,0,3.488-1.562,3.488-3.487C264.332,97.599,262.77,96.038,260.844,96.038z M243.529,102.484
		c-1.926,0-3.488,1.564-3.488,3.491c0,1.925,1.562,3.487,3.488,3.487s3.486-1.562,3.486-3.487S245.455,102.484,243.529,102.484z
		 M260.725,108.698c-1.928,0-3.49,1.562-3.49,3.489c0,1.926,1.562,3.484,3.49,3.484s3.488-1.561,3.488-3.484
		C264.213,110.26,262.65,108.698,260.725,108.698z"/>
</g>
</svg>
