<?xml version="1.0" encoding="utf-8"?>
<!-- Generator: Adobe Illustrator 16.0.0, SVG Export Plug-In . SVG Version: 6.00 Build 0)  -->
<!DOCTYPE svg PUBLIC "-//W3C//DTD SVG 1.1//EN" "http://www.w3.org/Graphics/SVG/1.1/DTD/svg11.dtd">
<svg version="1.1" id="Layer_1" xmlns="http://www.w3.org/2000/svg" xmlns:xlink="http://www.w3.org/1999/xlink" x="0px" y="0px"
	 width="28px" height="27px" viewBox="0 0 28 27" enable-background="new 0 0 28 27" xml:space="preserve">
<path fill="#989898" d="M10.16,11.58c-0.706,0-1.28,0.573-1.28,1.28c0,0.708,0.574,1.28,1.28,1.28c0.707,0,1.28-0.571,1.28-1.28
	C11.44,12.153,10.867,11.58,10.16,11.58z M14,15.42c-0.706,0-1.279,0.572-1.279,1.279s0.574,1.28,1.279,1.28
	c0.707,0,1.28-0.573,1.28-1.28S14.706,15.42,14,15.42z M10.16,15.42c-0.706,0-1.28,0.572-1.28,1.279s0.574,1.28,1.28,1.28
	c0.707,0,1.28-0.573,1.28-1.28S10.867,15.42,10.16,15.42z M21.679,5.182h-2.56c0-0.708-0.573-1.281-1.28-1.281
	c-0.707,0-1.28,0.574-1.28,1.281h-5.12c0-0.708-0.573-1.281-1.28-1.281c-0.706,0-1.28,0.574-1.28,1.281H6.32
	c-1.413,0-2.56,1.146-2.56,2.559v12.798c0,1.415,1.146,2.56,2.56,2.56h15.359c1.412,0,2.56-1.145,2.56-2.56V7.741
	C24.239,6.328,23.091,5.182,21.679,5.182z M21.679,20.539H6.32V7.741h2.56c0,0.708,0.574,1.279,1.28,1.279
	c0.707,0,1.28-0.571,1.28-1.279h5.12c0,0.708,0.573,1.279,1.28,1.279c0.708,0,1.28-0.571,1.28-1.279h2.56V20.539z M17.839,11.58
	c-0.707,0-1.28,0.573-1.28,1.28c0,0.708,0.573,1.28,1.28,1.28c0.708,0,1.28-0.571,1.28-1.28C19.12,12.153,18.547,11.58,17.839,11.58
	z M14,11.58c-0.706,0-1.279,0.573-1.279,1.28c0,0.708,0.574,1.28,1.279,1.28c0.707,0,1.28-0.571,1.28-1.28
	C15.28,12.153,14.706,11.58,14,11.58z M17.839,15.42c-0.707,0-1.28,0.572-1.28,1.279s0.573,1.28,1.28,1.28
	c0.708,0,1.28-0.573,1.28-1.28S18.547,15.42,17.839,15.42z"/>
<path fill="#989898" d="M58.38,10.479v-2.56c0-2.823,2.297-5.12,5.12-5.12c2.822,0,5.119,2.297,5.119,5.12v2.56
	c0,2.822-2.297,5.119-5.119,5.119C60.678,15.598,58.38,13.301,58.38,10.479z M73.032,19.572c-0.22-0.109-5.437-2.694-9.531-2.694
	c-4.095,0-9.312,2.585-9.532,2.694c-0.434,0.218-0.708,0.66-0.708,1.146v1.279c0,0.708,0.572,1.28,1.28,1.28h17.918
	c0.708,0,1.28-0.572,1.28-1.28v-1.279C73.739,20.232,73.465,19.79,73.032,19.572z"/>
</svg>
