<?xml version="1.0" encoding="utf-8"?>
<!-- Generator: Adobe Illustrator 16.0.0, SVG Export Plug-In . SVG Version: 6.00 Build 0)  -->
<!DOCTYPE svg PUBLIC "-//W3C//DTD SVG 1.1//EN" "http://www.w3.org/Graphics/SVG/1.1/DTD/svg11.dtd">
<svg version="1.1" id="Layer_1" xmlns="http://www.w3.org/2000/svg" xmlns:xlink="http://www.w3.org/1999/xlink" x="0px" y="0px"
	 width="25px" height="25px" viewBox="-0.5 -0.5 25 25" enable-background="new -0.5 -0.5 25 25" xml:space="preserve">
<g>
	<g>
		<path d="M11.5,22C5.71,22,1,17.29,1,11.5S5.71,1,11.5,1S22,5.71,22,11.5S17.29,22,11.5,22z"/>
		<path fill="#FFFFFF" d="M11.5,2.5c4.963,0,9,4.038,9,9c0,4.963-4.037,9-9,9c-4.962,0-9-4.037-9-9C2.5,6.538,6.538,2.5,11.5,2.5
			 M11.5-0.5c-6.628,0-12,5.373-12,12s5.372,12,12,12s12-5.373,12-12S18.128-0.5,11.5-0.5L11.5-0.5z"/>
	</g>
	<path fill="#FFFFFF" d="M16.389,7.699c0.148,0.149,0.148,0.395,0,0.543L13.4,11.229c-0.148,0.149-0.148,0.395,0,0.545l2.986,2.986
		c0.148,0.15,0.148,0.396,0,0.543l-1.089,1.086c-0.147,0.148-0.394,0.148-0.543,0L11.771,13.4c-0.148-0.148-0.393-0.148-0.543,0
		L8.24,16.386c-0.148,0.149-0.394,0.149-0.543,0l-1.086-1.087c-0.148-0.148-0.148-0.393,0-0.543L9.6,11.771
		c0.148-0.15,0.148-0.395,0-0.545L6.614,8.24c-0.149-0.15-0.149-0.396,0-0.543L7.7,6.611c0.149-0.148,0.395-0.148,0.543,0
		l2.984,2.987c0.151,0.15,0.395,0.15,0.544,0.002l2.987-2.986c0.15-0.148,0.395-0.148,0.543,0L16.389,7.699z"/>
</g>
</svg>
