<?xml version="1.0" encoding="utf-8"?>
<!-- Generator: Adobe Illustrator 16.0.0, SVG Export Plug-In . SVG Version: 6.00 Build 0)  -->
<!DOCTYPE svg PUBLIC "-//W3C//DTD SVG 1.1//EN" "http://www.w3.org/Graphics/SVG/1.1/DTD/svg11.dtd">
<svg version="1.1" id="Layer_1" xmlns="http://www.w3.org/2000/svg" xmlns:xlink="http://www.w3.org/1999/xlink" x="0px" y="0px"
	 width="24px" height="24px" viewBox="0 0 24 24" enable-background="new 0 0 24 24" xml:space="preserve">
<g opacity="0.8">
	<path fill="#C0C0C0" d="M16.248,7.446c-1.706-1.706-4.471-1.706-6.178,0c-1.705,1.705-1.705,4.471,0,6.175
		c1.538,1.537,3.931,1.689,5.637,0.459c0.191-0.136,0.372-0.29,0.541-0.459c0.169-0.168,0.318-0.347,0.456-0.535
		C17.936,11.382,17.783,8.983,16.248,7.446z M11.028,12.664c-1.176-1.176-1.176-3.084,0-4.258c1.177-1.176,3.085-1.176,4.261,0
		c1.173,1.175,1.173,3.082,0,4.258C14.113,13.841,12.205,13.841,11.028,12.664z"/>
	<path fill="#C0C0C0" d="M20.3,16.518l-3.281-3.281c-0.089-0.087-0.199-0.138-0.316-0.149c-0.162-0.024-0.333,0.024-0.456,0.149
		l-0.387,0.387c-0.127,0.125-0.178,0.294-0.153,0.457c0.011,0.116,0.065,0.227,0.153,0.315l3.279,3.28
		c0.215,0.212,0.561,0.212,0.772,0L20.3,17.29C20.513,17.078,20.513,16.73,20.3,16.518z"/>
</g>
</svg>
