<?xml version="1.0" encoding="utf-8"?>
<!-- Generator: Adobe Illustrator 16.0.0, SVG Export Plug-In . SVG Version: 6.00 Build 0)  -->
<!DOCTYPE svg PUBLIC "-//W3C//DTD SVG 1.1//EN" "http://www.w3.org/Graphics/SVG/1.1/DTD/svg11.dtd">
<svg version="1.1" id="Layer_1" xmlns="http://www.w3.org/2000/svg" xmlns:xlink="http://www.w3.org/1999/xlink" x="0px" y="0px"
	 width="75px" height="75px" viewBox="0 0 75 75" enable-background="new 0 0 75 75" xml:space="preserve">
<polygon fill="#CFC53E" stroke="#CFC53E" stroke-width="0.9568" stroke-linecap="round" stroke-linejoin="round" stroke-miterlimit="10" points="
	7.849,1.927 9.656,5.589 13.697,6.176 10.773,9.026 11.464,13.052 7.849,11.152 4.234,13.052 4.924,9.026 2,6.176 6.042,5.589 "/>
<polygon fill="#C0C0C0" stroke="#C0C0C0" stroke-width="0.9568" stroke-linecap="round" stroke-linejoin="round" stroke-miterlimit="10" points="
	22.788,1.927 24.595,5.589 28.636,6.176 25.712,9.026 26.404,13.052 22.788,11.152 19.173,13.052 19.864,9.026 16.939,6.176 
	20.981,5.589 "/>
<polygon fill="#C0C0C0" stroke="#C0C0C0" stroke-width="0.9568" stroke-linecap="round" stroke-linejoin="round" stroke-miterlimit="10" points="
	37.727,1.927 39.533,5.589 43.574,6.176 40.65,9.026 41.342,13.052 37.727,11.152 34.111,13.052 34.803,9.026 31.878,6.176 
	35.92,5.589 "/>
<polygon fill="#C0C0C0" stroke="#C0C0C0" stroke-width="0.9568" stroke-linecap="round" stroke-linejoin="round" stroke-miterlimit="10" points="
	52.666,1.927 54.473,5.589 58.514,6.176 55.59,9.026 56.281,13.052 52.666,11.152 49.051,13.052 49.742,9.026 46.816,6.176 
	50.859,5.589 "/>
<polygon fill="#C0C0C0" stroke="#C0C0C0" stroke-width="0.9568" stroke-linecap="round" stroke-linejoin="round" stroke-miterlimit="10" points="
	67.604,1.927 69.41,5.589 73.452,6.176 70.528,9.026 71.219,13.052 67.604,11.152 63.988,13.052 64.68,9.026 61.755,6.176 
	65.797,5.589 "/>
<polygon fill="#CFC53E" stroke="#CFC53E" stroke-width="0.9568" stroke-linecap="round" stroke-linejoin="round" stroke-miterlimit="10" points="
	7.849,16.912 9.656,20.574 13.697,21.162 10.773,24.012 11.464,28.037 7.849,26.138 4.234,28.037 4.924,24.012 2,21.162 
	6.042,20.574 "/>
<polygon fill="#CFC53E" stroke="#CFC53E" stroke-width="0.9568" stroke-linecap="round" stroke-linejoin="round" stroke-miterlimit="10" points="
	22.788,16.912 24.595,20.574 28.636,21.162 25.712,24.012 26.404,28.037 22.788,26.138 19.173,28.037 19.864,24.012 16.939,21.162 
	20.981,20.574 "/>
<polygon fill="#C0C0C0" stroke="#C0C0C0" stroke-width="0.9568" stroke-linecap="round" stroke-linejoin="round" stroke-miterlimit="10" points="
	37.727,16.912 39.533,20.574 43.574,21.162 40.65,24.012 41.342,28.037 37.727,26.138 34.111,28.037 34.803,24.012 31.878,21.162 
	35.92,20.574 "/>
<polygon fill="#C0C0C0" stroke="#C0C0C0" stroke-width="0.9568" stroke-linecap="round" stroke-linejoin="round" stroke-miterlimit="10" points="
	52.666,16.912 54.473,20.574 58.514,21.162 55.59,24.012 56.281,28.037 52.666,26.138 49.051,28.037 49.742,24.012 46.816,21.162 
	50.859,20.574 "/>
<polygon fill="#C0C0C0" stroke="#C0C0C0" stroke-width="0.9568" stroke-linecap="round" stroke-linejoin="round" stroke-miterlimit="10" points="
	67.604,16.912 69.41,20.574 73.452,21.162 70.528,24.012 71.219,28.037 67.604,26.138 63.988,28.037 64.68,24.012 61.755,21.162 
	65.797,20.574 "/>
<polygon fill="#CFC53E" stroke="#CFC53E" stroke-width="0.9568" stroke-linecap="round" stroke-linejoin="round" stroke-miterlimit="10" points="
	7.849,16.912 9.656,20.574 13.697,21.162 10.773,24.012 11.464,28.037 7.849,26.138 4.234,28.037 4.924,24.012 2,21.162 
	6.042,20.574 "/>
<polygon fill="#CFC53E" stroke="#CFC53E" stroke-width="0.9568" stroke-linecap="round" stroke-linejoin="round" stroke-miterlimit="10" points="
	22.788,16.912 24.595,20.574 28.636,21.162 25.712,24.012 26.404,28.037 22.788,26.138 19.173,28.037 19.864,24.012 16.939,21.162 
	20.981,20.574 "/>
<polygon fill="#C0C0C0" stroke="#C0C0C0" stroke-width="0.9568" stroke-linecap="round" stroke-linejoin="round" stroke-miterlimit="10" points="
	37.727,16.912 39.533,20.574 43.574,21.162 40.65,24.012 41.342,28.037 37.727,26.138 34.111,28.037 34.803,24.012 31.878,21.162 
	35.92,20.574 "/>
<polygon fill="#C0C0C0" stroke="#C0C0C0" stroke-width="0.9568" stroke-linecap="round" stroke-linejoin="round" stroke-miterlimit="10" points="
	52.666,16.912 54.473,20.574 58.514,21.162 55.59,24.012 56.281,28.037 52.666,26.138 49.051,28.037 49.742,24.012 46.816,21.162 
	50.859,20.574 "/>
<polygon fill="#C0C0C0" stroke="#C0C0C0" stroke-width="0.9568" stroke-linecap="round" stroke-linejoin="round" stroke-miterlimit="10" points="
	67.604,16.912 69.41,20.574 73.452,21.162 70.528,24.012 71.219,28.037 67.604,26.138 63.988,28.037 64.68,24.012 61.755,21.162 
	65.797,20.574 "/>
<polygon fill="#CFC53E" stroke="#CFC53E" stroke-width="0.9568" stroke-linecap="round" stroke-linejoin="round" stroke-miterlimit="10" points="
	7.849,31.787 9.656,35.449 13.697,36.037 10.773,38.887 11.464,42.912 7.849,41.013 4.234,42.912 4.924,38.887 2,36.037 
	6.042,35.449 "/>
<polygon fill="#CFC53E" stroke="#CFC53E" stroke-width="0.9568" stroke-linecap="round" stroke-linejoin="round" stroke-miterlimit="10" points="
	22.788,31.787 24.595,35.449 28.636,36.037 25.712,38.887 26.404,42.912 22.788,41.013 19.173,42.912 19.864,38.887 16.939,36.037 
	20.981,35.449 "/>
<polygon fill="#CFC53E" stroke="#CFC53E" stroke-width="0.9568" stroke-linecap="round" stroke-linejoin="round" stroke-miterlimit="10" points="
	37.727,31.787 39.533,35.449 43.574,36.037 40.65,38.887 41.342,42.912 37.727,41.013 34.111,42.912 34.803,38.887 31.878,36.037 
	35.92,35.449 "/>
<polygon fill="#C0C0C0" stroke="#C0C0C0" stroke-width="0.9568" stroke-linecap="round" stroke-linejoin="round" stroke-miterlimit="10" points="
	52.666,31.787 54.473,35.449 58.514,36.037 55.59,38.887 56.281,42.912 52.666,41.013 49.051,42.912 49.742,38.887 46.816,36.037 
	50.859,35.449 "/>
<polygon fill="#C0C0C0" stroke="#C0C0C0" stroke-width="0.9568" stroke-linecap="round" stroke-linejoin="round" stroke-miterlimit="10" points="
	67.604,31.787 69.41,35.449 73.452,36.037 70.528,38.887 71.219,42.912 67.604,41.013 63.988,42.912 64.68,38.887 61.755,36.037 
	65.797,35.449 "/>
<polygon fill="#CFC53E" stroke="#CFC53E" stroke-width="0.9568" stroke-linecap="round" stroke-linejoin="round" stroke-miterlimit="10" points="
	7.849,46.787 9.656,50.449 13.697,51.037 10.773,53.887 11.464,57.912 7.849,56.013 4.234,57.912 4.924,53.887 2,51.037 
	6.042,50.449 "/>
<polygon fill="#CFC53E" stroke="#CFC53E" stroke-width="0.9568" stroke-linecap="round" stroke-linejoin="round" stroke-miterlimit="10" points="
	22.788,46.787 24.595,50.449 28.636,51.037 25.712,53.887 26.404,57.912 22.788,56.013 19.173,57.912 19.864,53.887 16.939,51.037 
	20.981,50.449 "/>
<polygon fill="#CFC53E" stroke="#CFC53E" stroke-width="0.9568" stroke-linecap="round" stroke-linejoin="round" stroke-miterlimit="10" points="
	37.727,46.787 39.533,50.449 43.574,51.037 40.65,53.887 41.342,57.912 37.727,56.013 34.111,57.912 34.803,53.887 31.878,51.037 
	35.92,50.449 "/>
<polygon fill="#CFC53E" stroke="#CFC53E" stroke-width="0.9568" stroke-linecap="round" stroke-linejoin="round" stroke-miterlimit="10" points="
	52.666,46.787 54.473,50.449 58.514,51.037 55.59,53.887 56.281,57.912 52.666,56.013 49.051,57.912 49.742,53.887 46.816,51.037 
	50.859,50.449 "/>
<polygon fill="#C0C0C0" stroke="#C0C0C0" stroke-width="0.9568" stroke-linecap="round" stroke-linejoin="round" stroke-miterlimit="10" points="
	67.604,46.787 69.41,50.449 73.452,51.037 70.528,53.887 71.219,57.912 67.604,56.013 63.988,57.912 64.68,53.887 61.755,51.037 
	65.797,50.449 "/>
<polygon fill="#CFC53E" stroke="#CFC53E" stroke-width="0.9568" stroke-linecap="round" stroke-linejoin="round" stroke-miterlimit="10" points="
	7.849,61.662 9.656,65.324 13.697,65.912 10.773,68.762 11.464,72.787 7.849,70.888 4.234,72.787 4.924,68.762 2,65.912 
	6.042,65.324 "/>
<polygon fill="#CFC53E" stroke="#CFC53E" stroke-width="0.9568" stroke-linecap="round" stroke-linejoin="round" stroke-miterlimit="10" points="
	22.788,61.662 24.595,65.324 28.636,65.912 25.712,68.762 26.404,72.787 22.788,70.888 19.173,72.787 19.864,68.762 16.939,65.912 
	20.981,65.324 "/>
<polygon fill="#CFC53E" stroke="#CFC53E" stroke-width="0.9568" stroke-linecap="round" stroke-linejoin="round" stroke-miterlimit="10" points="
	37.727,61.662 39.533,65.324 43.574,65.912 40.65,68.762 41.342,72.787 37.727,70.888 34.111,72.787 34.803,68.762 31.878,65.912 
	35.92,65.324 "/>
<polygon fill="#CFC53E" stroke="#CFC53E" stroke-width="0.9568" stroke-linecap="round" stroke-linejoin="round" stroke-miterlimit="10" points="
	52.666,61.662 54.473,65.324 58.514,65.912 55.59,68.762 56.281,72.787 52.666,70.888 49.051,72.787 49.742,68.762 46.816,65.912 
	50.859,65.324 "/>
<polygon fill="#CFC53E" stroke="#CFC53E" stroke-width="0.9568" stroke-linecap="round" stroke-linejoin="round" stroke-miterlimit="10" points="
	67.604,61.662 69.41,65.324 73.452,65.912 70.528,68.762 71.219,72.787 67.604,70.888 63.988,72.787 64.68,68.762 61.755,65.912 
	65.797,65.324 "/>
<text transform="matrix(1 0 0 1 262.5 146)" font-family="'MyriadPro-Regular'" font-size="12">c0c0c0</text>
</svg>
